<?xml version="1.0" encoding="utf-8"?>
<!-- Generator: Adobe Illustrator 16.0.0, SVG Export Plug-In . SVG Version: 6.00 Build 0)  -->
<!DOCTYPE svg PUBLIC "-//W3C//DTD SVG 1.1//EN" "http://www.w3.org/Graphics/SVG/1.1/DTD/svg11.dtd">
<svg version="1.1" id="Layer_1" xmlns="http://www.w3.org/2000/svg" xmlns:xlink="http://www.w3.org/1999/xlink" x="0px" y="0px"
	 width="200px" height="141px" viewBox="0 0 841.89 595.276" enable-background="new 0 0 841.89 595.276"
	 xml:space="preserve">
<rect x="727.027" y="193.128" fill-rule="evenodd" clip-rule="evenodd" fill="#808285" width="39.398" height="131.345"/>
<g>
	<defs>
		<rect id="SVGID_1_" width="841.89" height="595.276"/>
	</defs>
	<clipPath id="SVGID_2_">
		<use xlink:href="#SVGID_1_"  overflow="visible"/>
	</clipPath>
	<path clip-path="url(#SVGID_2_)" fill-rule="evenodd" clip-rule="evenodd" fill="#808285" d="M445.147,194.383
		c4.479-0.362,8.958-0.648,13.442-0.854l27.495,39.266h-23.364c-4.803,0.189-9.605,0.475-14.398,0.859
		c-10.058,0.812-17.874,9.093-18.108,19.181c-0.045,1.988-0.069,3.98-0.069,5.965v65.672h-39.402V258.8
		c0-2.292,0.028-4.591,0.08-6.886C391.526,221.657,414.978,196.821,445.147,194.383"/>
	<path clip-path="url(#SVGID_2_)" fill-rule="evenodd" clip-rule="evenodd" fill="#808285" d="M594.846,285.071l64.378-91.942
		h48.099L627.124,307.67c-2.636,3.768-5.916,7.039-9.679,9.676c-17.826,12.481-42.389,8.149-54.876-9.676l-80.205-114.542h48.102
		L594.846,285.071z"/>
	<path clip-path="url(#SVGID_2_)" fill-rule="evenodd" clip-rule="evenodd" fill="#808285" d="M200.291,258.801
		c0-2.292,0.028-4.591,0.08-6.886c0.708-30.26,24.156-55.093,54.326-57.531c20.611-1.671,41.324-1.671,61.94,0
		c30.166,2.438,53.617,27.271,54.321,57.531c0.108,4.59,0.108,9.185,0,13.772c-0.704,30.263-24.155,55.099-54.321,57.537
		c-30.027,2.425-60.228,1.315-89.992-3.314c11.821-9.797,20.207-23.113,23.946-38.006c2.271,1.148,4.744,1.841,7.283,2.044
		c18.498,1.5,37.087,1.5,55.585,0c10.056-0.813,17.874-9.09,18.107-19.174c0.094-3.981,0.094-7.96,0-11.937
		c-0.233-10.088-8.051-18.369-18.107-19.181c-18.498-1.498-37.087-1.498-55.585,0c-10.056,0.812-17.874,9.093-18.11,19.181
		c-0.046,1.985-0.07,3.977-0.07,5.965c0,2.299-0.025,4.59-0.081,6.886c-0.704,30.263-24.155,55.099-54.322,57.537
		c-20.614,1.668-41.328,1.668-61.939,0c-30.17-2.438-53.621-27.274-54.326-57.537c-0.108-4.587-0.108-9.182,0-13.772
		c0.705-30.26,24.156-55.093,54.326-57.531c26.921-2.181,54.001-1.514,80.783,1.991c-18.208,5.094-32.883,18.589-39.476,36.313
		c-12.718-0.384-25.447-0.06-38.133,0.967c-10.053,0.812-17.87,9.093-18.107,19.181c-0.091,3.977-0.091,7.956,0,11.937
		c0.237,10.084,8.054,18.361,18.107,19.174c18.501,1.5,37.09,1.5,55.588,0c10.056-0.813,17.874-9.09,18.107-19.174
		C200.27,262.78,200.291,260.792,200.291,258.801"/>
	<path clip-path="url(#SVGID_2_)" d="M248.656,369.825c-1.885,11.318-10.522,19.433-24.656,19.433
		c-14.919,0-25.363-10.142-25.363-24.079c0-11.318,7.303-24.862,26.384-24.862c14.841,0,22.143,9.356,22.379,15.113h-1.571
		c-0.628-6.738-8.637-13.805-20.808-13.805c-18.453,0-24.813,13.871-24.813,23.554c0,11.844,8.637,22.771,23.792,22.771
		c13.427,0,21.437-7.786,23.086-18.124H248.656z"/>
	<path clip-path="url(#SVGID_2_)" d="M276.767,353.728c11.7,0,18.139,8.441,18.139,17.602c0,9.226-6.361,17.601-18.218,17.601
		c-11.777,0-18.138-8.375-18.138-17.601C258.55,362.169,264.911,353.728,276.767,353.728 M276.767,387.622
		c10.758,0,16.568-7.721,16.568-16.292c0-8.375-5.81-16.292-16.568-16.292c-10.915,0-16.646,7.917-16.646,16.292
		C260.121,379.901,265.852,387.622,276.767,387.622"/>
	<path clip-path="url(#SVGID_2_)" d="M308.883,388.145h-1.57v-33.631h1.57v8.31h0.157c1.492-4.973,6.203-9.291,15.862-9.095v1.309
		c-11.072-0.523-16.019,6.739-16.019,14.067V388.145z"/>
	<polygon clip-path="url(#SVGID_2_)" points="365.104,354.514 366.831,354.514 351.598,388.145 349.635,388.145 332.988,354.514 
		334.873,354.514 350.499,386.836 350.656,386.836 	"/>
	<path clip-path="url(#SVGID_2_)" d="M377.668,348.037h-1.57v-6.607h1.57V348.037z M377.668,388.145h-1.57v-33.631h1.57V388.145z"/>
	<polygon clip-path="url(#SVGID_2_)" points="420.54,341.428 423.994,341.428 423.994,385.658 455.797,385.658 455.797,388.145 
		420.54,388.145 	"/>
	<polygon clip-path="url(#SVGID_2_)" points="503.774,385.659 503.774,388.144 465.691,388.144 465.691,341.428 503.381,341.428 
		503.381,343.915 469.145,343.915 469.145,362.627 501.339,362.627 501.339,365.114 469.145,365.114 469.145,385.659 	"/>
	<path clip-path="url(#SVGID_2_)" d="M515.553,341.428h18.374c20.101,0,25.911,11.45,25.911,23.293
		c0,13.282-8.088,23.423-26.068,23.423h-18.217V341.428z M519.007,385.659h15.075c10.444,0,22.302-4.776,22.302-20.938
		c0-19.105-14.685-20.807-23.008-20.807h-14.369V385.659z"/>
	<polygon clip-path="url(#SVGID_2_)" points="635.141,386.836 635.141,388.145 600.827,388.145 600.827,341.428 602.397,341.428 
		602.397,386.836 	"/>
	<path clip-path="url(#SVGID_2_)" d="M646.132,348.037h-1.569v-6.607h1.569V348.037z M646.132,388.145h-1.569v-33.631h1.569V388.145
		z"/>
	<path clip-path="url(#SVGID_2_)" d="M691.361,376.891h-0.157c-1.728,6.02-8.952,9.421-15.862,9.421
		c-11.228,0-16.804-7.459-16.804-16.095c0-9.03,5.968-16.489,17.354-16.489c7.772,0,13.584,4.253,15.312,9.749h0.157v-8.963h1.57
		v32.519c0,9.226-6.203,13.479-16.805,13.479c-8.166,0-15.153-3.01-15.389-10.6h1.57c0.234,6.607,6.518,9.291,13.74,9.291
		c9.816,0,15.313-3.795,15.313-12.17V376.891z M675.893,355.038c-10.443,0-15.782,7.001-15.782,15.18
		c0,8.31,5.339,14.787,15.153,14.787c10.365,0,16.02-6.674,16.02-14.787C691.283,362.497,686.022,355.038,675.893,355.038"/>
	<path clip-path="url(#SVGID_2_)" d="M707.301,341.428h1.569v21.396h0.158c1.414-5.169,6.595-9.095,14.526-9.095
		c8.401,0,14.37,4.253,14.37,12.104v22.313h-1.57V366.03c0-7.787-5.89-10.993-12.8-10.993c-9.658,0-14.685,6.543-14.685,14.068
		v19.04h-1.569V341.428z"/>
	<path clip-path="url(#SVGID_2_)" d="M756.771,355.823v25.779c0,5.037,2.982,5.234,5.418,5.234c1.569,0,2.904,0,3.454-0.197v1.31
		c-0.941,0.064-1.413,0.196-3.848,0.196c-3.689,0-6.595-1.506-6.595-6.281v-26.041h-7.46v-1.31h7.46v-10.599h1.57v10.599h9.107v1.31
		H756.771z"/>
</g>
</svg>
