<?xml version="1.0" encoding="utf-8"?>
<!-- Generator: Adobe Illustrator 16.0.0, SVG Export Plug-In . SVG Version: 6.00 Build 0)  -->
<!DOCTYPE svg PUBLIC "-//W3C//DTD SVG 1.1//EN" "http://www.w3.org/Graphics/SVG/1.1/DTD/svg11.dtd">
<svg version="1.1" id="Layer_1" xmlns="http://www.w3.org/2000/svg" xmlns:xlink="http://www.w3.org/1999/xlink" x="0px" y="0px"
	 width="220px" height="72px" viewBox="56.445 173.138 733 240" enable-background="new 56.445 173.138 733 240"
	 xml:space="preserve">
<g>
	<rect x="732.287" y="189.447" fill="#808285" width="39.398" height="131.344"/>
	<path fill="#808285" d="M450.407,190.701c4.479-0.362,8.958-0.648,13.442-0.854l27.495,39.267H467.98
		c-4.804,0.188-9.605,0.475-14.398,0.858c-10.058,0.813-17.874,9.094-18.107,19.182c-0.046,1.987-0.069,3.979-0.069,5.965v65.672
		h-39.402v-65.672c0-2.292,0.028-4.591,0.08-6.886C396.786,217.975,420.238,193.139,450.407,190.701"/>
	<path fill="#808285" d="M600.106,281.389l64.378-91.941h48.099l-80.199,114.54c-2.636,3.768-5.916,7.039-9.679,9.676
		c-17.826,12.48-42.389,8.148-54.876-9.676l-80.205-114.541h48.103L600.106,281.389z"/>
	<path fill="#808285" d="M205.551,255.119c0-2.292,0.028-4.591,0.08-6.886c0.708-30.261,24.156-55.094,54.326-57.531
		c20.611-1.671,41.324-1.671,61.94,0c30.166,2.438,53.616,27.271,54.32,57.531c0.108,4.59,0.108,9.185,0,13.771
		c-0.704,30.264-24.154,55.098-54.32,57.537c-30.027,2.424-60.229,1.314-89.992-3.314c11.82-9.797,20.207-23.112,23.945-38.006
		c2.271,1.148,4.744,1.842,7.283,2.044c18.498,1.5,37.087,1.5,55.585,0c10.057-0.813,17.874-9.09,18.107-19.174
		c0.094-3.98,0.094-7.96,0-11.937c-0.233-10.088-8.051-18.369-18.107-19.182c-18.498-1.497-37.087-1.497-55.585,0
		c-10.056,0.813-17.874,9.094-18.109,19.182c-0.046,1.984-0.07,3.977-0.07,5.965c0,2.299-0.025,4.59-0.081,6.886
		c-0.704,30.264-24.155,55.099-54.322,57.536c-20.613,1.668-41.328,1.668-61.938,0c-30.17-2.438-53.621-27.272-54.326-57.536
		c-0.108-4.587-0.108-9.182,0-13.771c0.705-30.261,24.156-55.094,54.326-57.531c26.921-2.181,54.001-1.514,80.783,1.991
		c-18.208,5.094-32.884,18.589-39.477,36.313c-12.718-0.384-25.447-0.06-38.133,0.967c-10.053,0.813-17.87,9.094-18.107,19.182
		c-0.091,3.977-0.091,7.956,0,11.937c0.237,10.084,8.055,18.361,18.107,19.174c18.501,1.5,37.09,1.5,55.588,0
		c10.056-0.813,17.874-9.09,18.107-19.174C205.53,259.098,205.551,257.111,205.551,255.119"/>
	<path d="M253.916,366.142c-1.885,11.318-10.522,19.434-24.656,19.434c-14.919,0-25.362-10.143-25.362-24.078
		c0-11.318,7.303-24.863,26.384-24.863c14.841,0,22.143,9.357,22.379,15.113h-1.571c-0.628-6.738-8.637-13.805-20.808-13.805
		c-18.453,0-24.813,13.871-24.813,23.555c0,11.844,8.638,22.77,23.792,22.77c13.428,0,21.438-7.785,23.086-18.123h1.57V366.142z"/>
	<path d="M282.027,350.046c11.699,0,18.139,8.441,18.139,17.602c0,9.227-6.361,17.602-18.218,17.602
		c-11.777,0-18.139-8.375-18.139-17.602C263.809,358.488,270.171,350.046,282.027,350.046 M282.027,383.939
		c10.758,0,16.567-7.721,16.567-16.291c0-8.375-5.81-16.293-16.567-16.293c-10.915,0-16.646,7.918-16.646,16.293
		C265.381,376.218,271.112,383.939,282.027,383.939"/>
	<path d="M314.142,384.462h-1.569v-33.631h1.569v8.311h0.157c1.492-4.973,6.203-9.291,15.862-9.096v1.309
		c-11.072-0.521-16.02,6.74-16.02,14.068V384.462z"/>
	<polygon points="370.364,350.831 372.091,350.831 356.858,384.462 354.895,384.462 338.248,350.831 340.133,350.831 
		355.759,383.154 355.916,383.154 	"/>
	<path d="M382.927,344.355h-1.569v-6.607h1.569V344.355z M382.927,384.462h-1.569v-33.631h1.569V384.462z"/>
	<polygon points="425.8,337.745 429.254,337.745 429.254,381.976 461.057,381.976 461.057,384.462 425.8,384.462 	"/>
	<polygon points="509.034,381.976 509.034,384.462 470.951,384.462 470.951,337.745 508.641,337.745 508.641,340.232 
		474.405,340.232 474.405,358.945 506.599,358.945 506.599,361.431 474.405,361.431 474.405,381.976 	"/>
	<path d="M520.813,337.745h18.374c20.101,0,25.911,11.451,25.911,23.293c0,13.283-8.088,23.424-26.068,23.424h-18.217V337.745
		L520.813,337.745z M524.267,381.976h15.075c10.443,0,22.302-4.775,22.302-20.938c0-19.105-14.686-20.807-23.008-20.807h-14.369
		V381.976z"/>
	<polygon points="640.401,383.154 640.401,384.462 606.087,384.462 606.087,337.745 607.657,337.745 607.657,383.154 	"/>
	<path d="M651.392,344.355h-1.569v-6.607h1.569V344.355z M651.392,384.462h-1.569v-33.631h1.569V384.462z"/>
	<path d="M696.621,373.208h-0.157c-1.728,6.02-8.951,9.422-15.861,9.422c-11.229,0-16.805-7.459-16.805-16.096
		c0-9.029,5.969-16.488,17.354-16.488c7.771,0,13.584,4.252,15.312,9.748h0.157v-8.963h1.57v32.52
		c0,9.227-6.203,13.479-16.805,13.479c-8.166,0-15.153-3.01-15.39-10.6h1.57c0.234,6.607,6.518,9.291,13.74,9.291
		c9.815,0,15.313-3.795,15.313-12.17L696.621,373.208L696.621,373.208z M681.153,351.355c-10.443,0-15.782,7.002-15.782,15.182
		c0,8.309,5.339,14.787,15.153,14.787c10.365,0,16.02-6.676,16.02-14.787C696.543,358.814,691.282,351.355,681.153,351.355"/>
	<path d="M712.561,337.745h1.568v21.396h0.158c1.414-5.17,6.595-9.096,14.526-9.096c8.4,0,14.37,4.254,14.37,12.105v22.313h-1.57
		v-22.117c0-7.787-5.89-10.992-12.8-10.992c-9.658,0-14.686,6.543-14.686,14.068v19.039h-1.568L712.561,337.745L712.561,337.745z"/>
	<path d="M762.031,352.14v25.779c0,5.037,2.982,5.234,5.418,5.234c1.569,0,2.904,0,3.454-0.197v1.311
		c-0.941,0.064-1.413,0.195-3.848,0.195c-3.689,0-6.596-1.506-6.596-6.281V352.14H753v-1.309h7.46v-10.6h1.57v10.6h9.107v1.309
		H762.031z"/>
</g>
</svg>
